<svg xmlns="http://www.w3.org/2000/svg" width="13.58" height="16.502" viewBox="0 0 13.58 16.502">
  <path id="Body" d="M9.928,2.391a1.3,1.3,0,0,0,.548-.158c4.723-2.474,6.242-3.71,6.242-6.69v-6.259c0-.855-.365-1.129-1.062-1.419-.971-.4-4.076-1.527-5.039-1.859a2.182,2.182,0,0,0-.689-.116A2.341,2.341,0,0,0,9.247-14c-.971.315-4.076,1.469-5.047,1.859-.689.282-1.062.564-1.062,1.419v6.259c0,2.98,1.6,4.076,6.242,6.69A1.212,1.212,0,0,0,9.928,2.391ZM6.84-2.9V-6.3c0-.606.249-.9.747-.938v-1a2.373,2.373,0,0,1,2.341-2.64,2.373,2.373,0,0,1,2.341,2.64v1c.5.033.747.332.747.938v3.4c0,.639-.282.938-.872.938H7.711C7.122-1.959,6.84-2.258,6.84-2.9Zm1.644-4.35h2.889v-1.1a1.488,1.488,0,0,0-1.444-1.677A1.488,1.488,0,0,0,8.483-8.342Z" transform="translate(-3.138 14.111)" fill="rgba(60,60,67,0.6)"/>
</svg>
