<svg id="Message---4" xmlns="http://www.w3.org/2000/svg" width="24" height="24" viewBox="0 0 24 24">
  <rect id="Rectangle_26" data-name="Rectangle 26" width="24" height="24" fill="none"/>
  <g id="Group_33" data-name="Group 33" transform="translate(2.373 2.249)">
    <g id="Group_32" data-name="Group 32">
      <path id="Path_13" data-name="Path 13" d="M12.314,19.49l-.7-.273ZM3.78,14.138l-.73.168Zm0-4.912-.731-.168.73.168Zm16.472.221.73-.168Zm0,4.455-.731-.168.73.168ZM9.316,20.823l.3-.69ZM9.69,3.271,9.864,4Zm4.593,0L14.108,4ZM9.2,20.773l-.3.69Zm5.466-17.41.175-.73Zm5.5,5.7-.731.168.73-.168ZM9.466,3.325,9.292,2.6ZM8.7,8.308a.75.75,0,0,0,0,1.5Zm6.032,1.5a.75.75,0,1,0,0-1.5ZM8.7,11.764a.75.75,0,0,0,0,1.5Zm3.839,1.5a.75.75,0,1,0,0-1.5ZM9.64,4.054,9.863,4l-.35-1.459-.222.053.35,1.46ZM14.107,4l.381.091.35-1.459-.381-.091Zm-4.5,16.133-.118-.05L8.9,21.462l.118.05Zm9.817-10.9.089.386,1.462-.336-.09-.386Zm-5.256,8.948H13.111v1.5h1.061Zm-1.061,0a1.615,1.615,0,0,0-1.495,1.04l1.4.546a.121.121,0,0,1,.1-.086ZM4.51,13.97a10.259,10.259,0,0,1,0-4.576L3.045,9.058a11.758,11.758,0,0,0,0,5.248L4.51,13.97ZM19.517,9.615a9.2,9.2,0,0,1,0,4.12l1.462.335a10.7,10.7,0,0,0,0-4.79Zm-10.5,11.9a3.025,3.025,0,0,0,3.992-1.75l-1.4-.546a1.525,1.525,0,0,1-2.005.917ZM9.864,4a9.1,9.1,0,0,1,4.244,0l.35-1.459a10.6,10.6,0,0,0-4.943,0L9.865,4ZM9.493,20.082A8.739,8.739,0,0,1,4.51,13.969l-1.462.336A10.235,10.235,0,0,0,8.9,21.461l.59-1.379Zm10.024-6.349a5.572,5.572,0,0,1-5.345,4.443v1.5a7.07,7.07,0,0,0,6.807-5.607l-1.462-.336ZM14.49,4.092a6.766,6.766,0,0,1,4.938,5.137l1.462-.336a8.266,8.266,0,0,0-6.051-6.26l-.35,1.459Zm-5.2-1.5A8.535,8.535,0,0,0,3.044,9.058l1.462.336A7.035,7.035,0,0,1,9.64,4.054L9.29,2.595ZM8.7,9.808h6.032v-1.5H8.7v1.5Zm0,3.456h3.839v-1.5H8.7v1.5Z" transform="translate(-2.75 -2.249)" fill="#363853"/>
    </g>
  </g>
</svg>
