<svg id="Notification---3" xmlns="http://www.w3.org/2000/svg" width="24" height="24" viewBox="0 0 24 24">
  <rect id="Rectangle_28" data-name="Rectangle 28" width="24" height="24" fill="none"/>
  <g id="Group_36" data-name="Group 36" transform="translate(3.373 2.25)">
    <g id="Group_35" data-name="Group 35">
      <path id="Path_14" data-name="Path 14" d="M6.028,8.633l.724.2Zm4.13-4.33-.23-.714.23.713ZM5.983,8.8l-.724-.2Zm-.193,4.07.739-.127-.74.126Zm.022.13-.74.128L5.812,13Zm.476,4.46.15-.736-.15.735Zm.367.074L6.8,16.8Zm10.69,0-.15-.735Zm.367-.075.15.735Zm.48-4.483.74.126Zm.024-.14-.74-.126Zm-.174-4.008-.726.19Zm-.063-.238L18.7,8.4Zm-4.012-4.28.235-.712ZM18.353,13.3l-.366.654ZM5.668,13.288l-.36-.658ZM12.75,3a.75.75,0,1,0-1.5,0Zm-1.5,1.005a.75.75,0,0,0,1.5,0ZM9.01,17.9l.083-.745-.9-.1.065.9.748-.055Zm5.98,0,.749.055.065-.9-.9.1.084.745Zm-.09.574.729.18Zm-.082.334-.728-.18ZM12.7,20.917l.174.73Zm-1.408,0-.174.73ZM9.182,18.811l-.728.179.728-.18ZM9.1,18.477l.728-.179-.728.18ZM6.752,8.83A5.553,5.553,0,0,1,10.39,5.017L9.927,3.59A7.053,7.053,0,0,0,5.3,8.437l1.448.393Zm-.045.165.045-.165L5.3,8.437,5.259,8.6,6.707,9Zm-.178,3.747A8.709,8.709,0,0,1,6.707,9L5.259,8.6a10.208,10.208,0,0,0-.209,4.392Zm.022.131-.022-.131-1.479.253.023.132,1.478-.254ZM5.25,15.26a1.491,1.491,0,0,1,.777-1.312L5.31,12.63a2.992,2.992,0,0,0-1.559,2.63h1.5Zm1.187,1.462A1.489,1.489,0,0,1,5.25,15.26H3.75a2.989,2.989,0,0,0,2.388,2.932l.3-1.47Zm.368.075-.368-.075-.3,1.47.368.075Zm10.39,0a26.021,26.021,0,0,1-10.39,0l-.3,1.47a27.517,27.517,0,0,0,10.99,0Zm.368-.075-.368.075.3,1.47.367-.075-.3-1.47ZM18.75,15.26a1.488,1.488,0,0,1-1.187,1.462l.3,1.47A2.989,2.989,0,0,0,20.25,15.26h-1.5Zm-.763-1.305a1.492,1.492,0,0,1,.763,1.305h1.5a2.992,2.992,0,0,0-1.53-2.614l-.733,1.31Zm-.51-1.247-.024.14,1.479.252.023-.14Zm-.16-3.691a8.737,8.737,0,0,1,.16,3.69l1.478.254a10.237,10.237,0,0,0-.188-4.325l-1.45.38Zm-.063-.238.062.238,1.451-.381L18.7,8.4l-1.451.38ZM13.732,5.02a5.4,5.4,0,0,1,3.522,3.758L18.7,8.4a6.9,6.9,0,0,0-4.5-4.8l-.47,1.425ZM10.39,5.015a5.393,5.393,0,0,1,3.342.005L14.2,3.6a6.893,6.893,0,0,0-4.275-.007l.463,1.427Zm8.33,7.63a.434.434,0,0,1,.212.454l-1.479-.253a1.067,1.067,0,0,0,.534,1.108l.732-1.309Zm-13.647.48a.47.47,0,0,1,.236-.495l.718,1.317a1.03,1.03,0,0,0,.524-1.076ZM11.25,3V4.005h1.5V3ZM8.925,18.649a27.494,27.494,0,0,0,6.15,0l-.168-1.49a26.021,26.021,0,0,1-5.814,0Zm6.7.007a4.242,4.242,0,0,0,.11-.7l-1.5-.109a2.7,2.7,0,0,1-.071.45l1.457.357Zm-.082.334.082-.334L14.172,18.3l-.082.334Zm-2.669,2.656a3.617,3.617,0,0,0,2.668-2.656l-1.456-.358a2.117,2.117,0,0,1-1.56,1.555l.348,1.46Zm-1.756,0a3.749,3.749,0,0,0,1.756,0l-.349-1.459a2.252,2.252,0,0,1-1.058,0l-.35,1.46ZM8.454,18.99a3.617,3.617,0,0,0,2.668,2.656l.349-1.459a2.117,2.117,0,0,1-1.56-1.556l-1.457.359Zm-.082-.334.082.334,1.456-.358L9.828,18.3Zm-.11-.7a4.025,4.025,0,0,0,.11.7L9.828,18.3a2.7,2.7,0,0,1-.07-.449l-1.5.109Z" transform="translate(-3.75 -2.25)" fill="#363853"/>
    </g>
  </g>
</svg>
