<svg xmlns="http://www.w3.org/2000/svg" width="374.988" height="268.17" viewBox="0 0 374.988 268.17">
  <g id="Group_342" data-name="Group 342" transform="translate(-249.143 -90.897)">
    <g id="Group_310" data-name="Group 310" transform="translate(439.06 290.283)">
      <path id="Path_487" data-name="Path 487" d="M525.5,400.162c1.581.69,5.446.6,5.45.6.04,0-.831-2.531-.9-2.684-.849-1.774-3.531-4.7-5.713-4.409a2.606,2.606,0,0,0-2.092,3.267C522.6,398.451,524.153,399.573,525.5,400.162Z" transform="translate(-522.161 -382.439)" fill="#263238"/>
      <path id="Path_488" data-name="Path 488" d="M526.977,406.439c1.64.239,5.09-.761,5.363-.842a46.232,46.232,0,0,0,2.093,5.79c.475,1.1.987,2.191,1.514,3.279-.314-.461-.6-.871-.645-.924-1.287-1.487-4.648-3.6-6.675-2.743a2.606,2.606,0,0,0-1.155,3.7c.748,1.363,2.542,2.036,4,2.248,1.475.215,4.433-.579,5.214-.8.206.415.408.832.616,1.247,1,1.989,2,3.97,2.931,5.943.327.7.623,1.391.923,2.088-.28-.409-.519-.751-.562-.8-1.286-1.487-4.647-3.6-6.674-2.743a2.606,2.606,0,0,0-1.155,3.7c.749,1.362,2.542,2.036,4,2.248a16.628,16.628,0,0,0,5.073-.761c.285.722.571,1.445.815,2.157.155.49.338.951.466,1.452s.274.982.409,1.466c.226.941.464,1.911.662,2.834.142.641.266,1.254.391,1.873-.317-.7-.967-2.045-1.034-2.152-1.046-1.665-4.048-4.267-6.182-3.723a2.607,2.607,0,0,0-1.7,3.485c.534,1.46,2.2,2.4,3.608,2.827,1.546.473,4.971.04,5.4-.016.205,1.023.4,2.02.56,2.963.367,2.083.644,3.95.855,5.53h1.443c-.252-1.635-.581-3.583-1.016-5.77-.2-1.04-.443-2.146-.7-3.281a28.335,28.335,0,0,0,3.012-1.416,19.078,19.078,0,0,0,4.39,2.831c-.393.967-.785,1.9-1.169,2.781-.8,1.838-1.557,3.468-2.227,4.855h1.561c.575-1.278,1.209-2.734,1.868-4.347.4-.98.815-2.036,1.227-3.123.414.087,3.8.775,5.384.418,1.432-.324,3.168-1.134,3.809-2.551a2.606,2.606,0,0,0-1.439-3.6c-2.087-.7-5.274,1.669-6.441,3.253-.069.093-.7,1.189-1.092,1.888.165-.445.332-.876.5-1.336.334-.908.639-1.824.972-2.809q.216-.721.437-1.457c.156-.484.259-1.014.392-1.526.284-1.192.514-2.414.718-3.65a17.09,17.09,0,0,0,5.109,1.175c1.466-.1,3.3-.641,4.152-1.944a2.606,2.606,0,0,0-.876-3.779c-1.958-1.01-5.467.851-6.86,2.239-.088.086-.975,1.194-1.452,1.812.117-.744.238-1.486.331-2.242.272-2.184.477-4.4.694-6.615.065-.678.139-1.352.211-2.028.282.106,3.634,1.354,5.283,1.238,1.465-.1,3.3-.641,4.151-1.945a2.605,2.605,0,0,0-.876-3.778c-1.957-1.01-5.466.851-6.86,2.239-.1.1-1.381,1.7-1.685,2.123.157-1.488.327-2.969.555-4.422a45.879,45.879,0,0,1,1.269-5.816c.131.05,3.624,1.368,5.313,1.25,1.465-.1,3.3-.641,4.152-1.945a2.606,2.606,0,0,0-.876-3.778c-1.957-1.01-5.466.851-6.86,2.239-.109.109-1.481,1.826-1.708,2.156.033-.111.054-.229.088-.339a33.606,33.606,0,0,1,2.3-5.5c.5-.98,1.035-1.889,1.573-2.761.625.312,3.5,1.707,5.03,1.769,1.468.058,3.354-.275,4.34-1.477a2.606,2.606,0,0,0-.455-3.852c-1.835-1.218-5.527.246-7.065,1.472-.083.067-.858.838-1.415,1.408.249-.39.5-.8.745-1.166.922-1.388,1.851-2.6,2.682-3.67.478-.6.922-1.14,1.343-1.637.774-.013,3.89-.108,5.252-.747,1.33-.625,2.85-1.79,3.172-3.311a2.607,2.607,0,0,0-2.179-3.208c-2.19-.236-4.792,2.765-5.592,4.561-.069.156-.872,2.708-.831,2.708h.047c-.415.471-.853.98-1.322,1.546-.857,1.052-1.815,2.249-2.77,3.622a46.194,46.194,0,0,0-2.872,4.575,33.946,33.946,0,0,0-2.453,5.523c-.008.022-.013.047-.02.069.011-.645-.017-2.45-.035-2.588-.253-1.95-1.887-5.57-4.053-5.971a2.606,2.606,0,0,0-3.006,2.451c-.127,1.55,1,3.1,2.093,4.079,1.235,1.1,4.665,2.173,4.938,2.257a46.028,46.028,0,0,0-1.449,5.983c-.211,1.178-.386,2.371-.546,3.57-.008-.558-.019-1.057-.029-1.127-.253-1.951-1.888-5.57-4.053-5.971a2.606,2.606,0,0,0-3.006,2.451c-.127,1.549,1,3.1,2.092,4.079,1.112.992,4.017,1.963,4.789,2.209-.056.46-.118.919-.173,1.38-.264,2.21-.518,4.417-.834,6.574-.111.76-.247,1.5-.382,2.25-.008-.5-.018-.913-.026-.976-.253-1.95-1.888-5.57-4.053-5.971a2.608,2.608,0,0,0-3.007,2.452c-.127,1.548,1,3.1,2.093,4.078a16.611,16.611,0,0,0,4.651,2.164c-.161.76-.32,1.52-.51,2.249-.141.494-.242.98-.411,1.469s-.313.97-.467,1.448c-.331.91-.667,1.85-1.012,2.729-.236.613-.471,1.193-.707,1.778.12-.755.322-2.239.325-2.365a10.124,10.124,0,0,0-1.357-4.923,3.08,3.08,0,0,0-.036-.576,2.607,2.607,0,0,0-3.187-2.211c-2.128.566-3.478,4.3-3.579,6.266-.006.116.07,1.38.131,2.177-.107-.463-.206-.913-.322-1.389-.223-.941-.474-1.874-.739-2.879q-.218-.72-.441-1.456c-.136-.489-.343-.989-.514-1.489-.421-1.151-.9-2.3-1.415-3.44a17.114,17.114,0,0,0,4.91-1.839c1.166-.894,2.4-2.357,2.39-3.911a2.606,2.606,0,0,0-2.815-2.669c-2.19.238-4.09,3.726-4.488,5.652-.024.12-.154,1.535-.211,2.312-.313-.685-.622-1.37-.961-2.053-.979-1.97-2.03-3.935-3.071-5.9-.319-.6-.63-1.205-.943-1.808.294-.067,3.778-.876,5.09-1.881,1.166-.894,2.4-2.357,2.391-3.912a2.606,2.606,0,0,0-2.815-2.668c-2.189.238-4.089,3.725-4.487,5.652-.03.145-.213,2.18-.235,2.7-.689-1.327-1.365-2.657-1.977-3.995a45.973,45.973,0,0,1-2.15-5.551c.138-.031,3.777-.858,5.121-1.889,1.165-.894,2.4-2.357,2.39-3.912a2.606,2.606,0,0,0-2.815-2.669c-2.189.238-4.089,3.726-4.486,5.652-.031.151-.228,2.341-.235,2.74-.034-.11-.081-.22-.114-.33a33.6,33.6,0,0,1-1.115-5.862c-.122-1.093-.179-2.145-.211-3.171.694-.085,3.861-.507,5.172-1.3,1.257-.761,2.646-2.079,2.806-3.625a2.607,2.607,0,0,0-2.5-2.962c-2.2,0-4.474,3.255-5.081,5.125-.033.1-.254,1.173-.4,1.956-.007-.463-.024-.94-.022-1.384,0-1.665.108-3.191.213-4.54.065-.767.14-1.459.216-2.106.637-.439,3.185-2.237,3.969-3.522.764-1.255,1.39-3.064.819-4.511a2.607,2.607,0,0,0-3.588-1.474c-1.956,1.011-2.471,4.95-2.148,6.89.028.167.767,2.739.8,2.717l.038-.026c-.086.621-.171,1.289-.249,2.019-.134,1.35-.273,2.877-.312,4.549a46.253,46.253,0,0,0,.129,5.4,34,34,0,0,0,1,5.96c.006.023.016.046.022.069-.346-.544-1.366-2.034-1.457-2.139-1.287-1.487-4.648-3.605-6.675-2.744a2.606,2.606,0,0,0-1.154,3.7C523.731,405.553,525.523,406.227,526.977,406.439Z" transform="translate(-522.304 -377.518)" fill="#263238"/>
      <path id="Path_489" data-name="Path 489" d="M580.881,399.935c.034.022.7-2.569.727-2.738.27-1.947-.35-5.871-2.334-6.829a2.606,2.606,0,0,0-3.546,1.571c-.532,1.46.142,3.253.94,4.486C577.606,397.874,580.878,399.934,580.881,399.935Z" transform="translate(-538.441 -381.362)" fill="#263238"/>
    </g>
    <g id="Group_311" data-name="Group 311" transform="translate(515.945 91.497)">
      <circle id="Ellipse_70" data-name="Ellipse 70" cx="29.555" cy="29.555" r="29.555" transform="matrix(0.974, -0.226, 0.226, 0.974, 0, 13.337)" fill="none" stroke="#263238" stroke-miterlimit="10" stroke-width="1"/>
      <circle id="Ellipse_71" data-name="Ellipse 71" cx="27.4" cy="27.4" r="27.4" transform="matrix(0.974, -0.226, 0.226, 0.974, 2.579, 14.96)" fill="none" stroke="#263238" stroke-miterlimit="10" stroke-width="1"/>
      <circle id="Ellipse_72" data-name="Ellipse 72" cx="1.539" cy="1.539" r="1.539" transform="translate(33.922 33.922)" fill="#263238"/>
      <path id="Path_490" data-name="Path 490" d="M663.876,135.089h13.854V118.157" transform="translate(-642.268 -99.628)" fill="none" stroke="#263238" stroke-linecap="round" stroke-linejoin="round" stroke-width="1"/>
    </g>
    <g id="Group_323" data-name="Group 323" transform="translate(249.693 146.403)">
      <g id="Group_313" data-name="Group 313" transform="translate(0 55.263)">
        <g id="Group_312" data-name="Group 312" transform="translate(1.208)">
          <path id="Path_491" data-name="Path 491" d="M257.243,398.369s5.564-28.187,5.564-30.413a128.837,128.837,0,0,0-2.225-20.4c-1.854-10.014-7.418-34.864-8.9-38.944s4.08-11.5,5.563-20.028,4.822-16.69,9.273-21.882,20.4-16.69,20.4-16.69h8.159s-2.967,48.957,1.113,56.375,11.5,22.995,12.239,29.671-3.709,17.8-2.967,24.108-5.564,16.69-7.047,21.141-.742,18.545-.742,18.545" transform="translate(-251.431 -250.013)" fill="#ffbf9d" stroke="#263238" stroke-linecap="round" stroke-linejoin="round" stroke-width="1"/>
          <path id="Path_492" data-name="Path 492" d="M296.862,269.324l-5.932,6.893s-1.486,7.943-2.227,11.651a29.661,29.661,0,0,1-2.225,6.676,79.809,79.809,0,0,0,4.08,8.159,20.972,20.972,0,0,1,2.225,4.451l4.08,2.6V269.324Z" transform="translate(-262.12 -255.601)" fill="#263238" stroke="#263238" stroke-linecap="round" stroke-linejoin="round" stroke-width="1"/>
          <path id="Path_493" data-name="Path 493" d="M271.943,307.2a48.572,48.572,0,0,1,5.993-.428" transform="translate(-257.687 -267.325)" fill="none" stroke="#263238" stroke-linecap="round" stroke-linejoin="round" stroke-width="1"/>
          <path id="Path_494" data-name="Path 494" d="M286.725,275.364s4.281,1.284,4.281,3" transform="translate(-262.196 -257.745)" fill="none" stroke="#263238" stroke-linecap="round" stroke-linejoin="round" stroke-width="1"/>
        </g>
        <path id="Path_495" data-name="Path 495" d="M249.693,457.49s1.854-17.607,1.854-19.46v-5.56a4.741,4.741,0,0,1,1.854-3.243s18.07-3.707,36.14,2.316,13.9,15.754,13.9,15.754l-.927,13.9" transform="translate(-249.693 -304.328)" fill="#fff" stroke="#263238" stroke-linecap="round" stroke-linejoin="round" stroke-width="1"/>
      </g>
      <g id="Group_321" data-name="Group 321" transform="translate(34.096 0)">
        <rect id="Rectangle_87" data-name="Rectangle 87" width="229.21" height="141.68" rx="9.588" fill="#263238" stroke="#263238" stroke-linecap="round" stroke-linejoin="round" stroke-width="1"/>
        <rect id="Rectangle_88" data-name="Rectangle 88" width="213.196" height="126.103" rx="9.588" transform="translate(8.007 7.789)" fill="#455a64" stroke="#263238" stroke-linecap="round" stroke-linejoin="round" stroke-width="1"/>
        <g id="Group_320" data-name="Group 320" transform="translate(148.538 12.9)">
          <g id="Group_315" data-name="Group 315">
            <rect id="Rectangle_89" data-name="Rectangle 89" width="56.912" height="36.424" fill="#fff" stroke="#263238" stroke-linecap="round" stroke-linejoin="round" stroke-width="1"/>
            <rect id="Rectangle_90" data-name="Rectangle 90" width="56.912" height="4.057" transform="translate(0 32.366)" fill="#263238" stroke="#263238" stroke-linecap="round" stroke-linejoin="round" stroke-width="1"/>
            <rect id="Rectangle_91" data-name="Rectangle 91" width="56.912" height="1.184" transform="translate(0 33.803)" fill="#fff" stroke="#263238" stroke-linecap="round" stroke-linejoin="round" stroke-width="1"/>
            <g id="Group_314" data-name="Group 314" transform="translate(18.413 8.978)">
              <circle id="Ellipse_73" data-name="Ellipse 73" cx="8.381" cy="8.381" r="8.381" transform="matrix(0.996, -0.084, 0.084, 0.996, 0, 1.408)" fill="#0169ee"/>
              <path id="Path_496" data-name="Path 496" d="M555.783,213.421l-7.292-4.21v8.42Z" transform="translate(-541.871 -204.184)" fill="#fff"/>
            </g>
          </g>
          <g id="Group_317" data-name="Group 317" transform="translate(0 40.356)">
            <rect id="Rectangle_92" data-name="Rectangle 92" width="56.912" height="36.424" fill="#fff" stroke="#263238" stroke-linecap="round" stroke-linejoin="round" stroke-width="1"/>
            <rect id="Rectangle_93" data-name="Rectangle 93" width="56.912" height="4.057" transform="translate(0 32.366)" fill="#263238" stroke="#263238" stroke-linecap="round" stroke-linejoin="round" stroke-width="1"/>
            <rect id="Rectangle_94" data-name="Rectangle 94" width="56.912" height="1.184" transform="translate(0 33.803)" fill="#fff" stroke="#263238" stroke-linecap="round" stroke-linejoin="round" stroke-width="1"/>
            <g id="Group_316" data-name="Group 316" transform="translate(18.413 8.978)">
              <circle id="Ellipse_74" data-name="Ellipse 74" cx="8.381" cy="8.381" r="8.381" transform="matrix(0.996, -0.084, 0.084, 0.996, 0, 1.408)" fill="#0169ee"/>
              <path id="Path_497" data-name="Path 497" d="M555.783,271.487l-7.292-4.21v8.42Z" transform="translate(-541.871 -262.25)" fill="#fff"/>
            </g>
          </g>
          <g id="Group_319" data-name="Group 319" transform="translate(0 80.712)">
            <rect id="Rectangle_95" data-name="Rectangle 95" width="56.912" height="36.424" fill="#fff" stroke="#263238" stroke-linecap="round" stroke-linejoin="round" stroke-width="1"/>
            <rect id="Rectangle_96" data-name="Rectangle 96" width="56.912" height="4.057" transform="translate(0 32.366)" fill="#263238" stroke="#263238" stroke-linecap="round" stroke-linejoin="round" stroke-width="1"/>
            <rect id="Rectangle_97" data-name="Rectangle 97" width="56.912" height="1.184" transform="translate(0 33.803)" fill="#fff" stroke="#263238" stroke-linecap="round" stroke-linejoin="round" stroke-width="1"/>
            <g id="Group_318" data-name="Group 318" transform="translate(18.102 8.667)">
              <circle id="Ellipse_75" data-name="Ellipse 75" cx="8.381" cy="8.381" r="8.381" transform="matrix(0.126, -0.992, 0.992, 0.126, 0, 16.629)" fill="#0169ee"/>
              <path id="Path_498" data-name="Path 498" d="M555.783,329.553l-7.292-4.21v8.42Z" transform="translate(-541.56 -320.005)" fill="#fff"/>
            </g>
          </g>
        </g>
        <path id="Rectangle_98" data-name="Rectangle 98" d="M5.8,0H99.191a5.8,5.8,0,0,1,5.8,5.8v95.112a5.8,5.8,0,0,1-5.8,5.8H5.8a5.8,5.8,0,0,1-5.8-5.8V5.8A5.8,5.8,0,0,1,5.8,0Z" transform="translate(28.181 25.036)" fill="#ff725e"/>
      </g>
      <g id="Group_322" data-name="Group 322" transform="translate(24.094 61.786)">
        <path id="Path_499" data-name="Path 499" d="M284.36,318.93s6.664-14.5,7.405-20.065-.742-18.544,1.113-23.736.742-11.869,5.193-14.465,10.385-1.854,11.5,8.531,0,26.7.37,32.268,10.014,13.723,10.385,25.591-3.709,24.108-4.822,29.3-5.564,17.432-5.564,17.432" transform="translate(-284.36 -259.399)" fill="#ffbf9d" stroke="#263238" stroke-linecap="round" stroke-linejoin="round" stroke-width="1"/>
        <path id="Path_500" data-name="Path 500" d="M299.214,272.793a15.439,15.439,0,0,1,6.7-.131,54.4,54.4,0,0,1,5.935,1.484,42.641,42.641,0,0,0,0-7.418s.492-4.237-2.077-5.949-7.7-1.284-9.417,2.569S299.214,272.793,299.214,272.793Z" transform="translate(-288.862 -259.528)" fill="none" stroke="#263238" stroke-linecap="round" stroke-linejoin="round" stroke-width="1"/>
        <path id="Path_501" data-name="Path 501" d="M307.9,287.893s-8.562-2.569-10.7.856" transform="translate(-288.275 -267.807)" fill="none" stroke="#263238" stroke-linecap="round" stroke-linejoin="round" stroke-width="1"/>
        <path id="Path_502" data-name="Path 502" d="M300.275,291.378s2.569.856,8.134.428" transform="translate(-289.214 -269.152)" fill="none" stroke="#263238" stroke-linecap="round" stroke-linejoin="round" stroke-width="1"/>
      </g>
    </g>
    <g id="Group_326" data-name="Group 326" transform="translate(478.238 168.163)">
      <g id="Group_325" data-name="Group 325">
        <path id="Path_503" data-name="Path 503" d="M617.686,201.45s-9.643,2.967-8.9,5.564,18.544,24.85,21.512,24.108,6.305-10.385,6.305-17.061S617.686,201.45,617.686,201.45Z" transform="translate(-573.7 -190.839)" fill="#263238" stroke="#263238" stroke-linecap="round" stroke-linejoin="round" stroke-width="1"/>
        <path id="Path_504" data-name="Path 504" d="M693.9,262.313l-9.946-11s-12.975-27.817-16.624-33.38-11.759-21.511-14.6-22.253-6.893-1.113-8.109-1.854-6.082-2.225-12.569-2.6-19.868-2.967-25.545-4.45-6.081,0-12.974,2.225-27.572,8.9-29.194,10.014.4,4.451,5.676,6.305,7.7.371,13.786-.37,15.408-2.225,16.624-2.225,10.136,1.113,11.759,1.854,5.676,6.676,5.676,9.643a31.372,31.372,0,0,1-.811,6.305l-.165,25.754s12.838,13.25,21.727,17.766,13.168,4.818,13.168,4.818L665.6,280.613" transform="translate(-563.792 -186.183)" fill="#ffbf9d" stroke="#263238" stroke-linecap="round" stroke-linejoin="round" stroke-width="1"/>
        <path id="Path_505" data-name="Path 505" d="M670.173,197.181a33.541,33.541,0,0,1,5.934,8.531" transform="translate(-588.984 -189.537)" fill="#fff" stroke="#263238" stroke-linecap="round" stroke-linejoin="round" stroke-width="1"/>
        <g id="Group_324" data-name="Group 324" transform="translate(9.987 7.486)">
          <path id="Path_506" data-name="Path 506" d="M688.085,307.594,656.715,275.8s-14.439-5.564-23.927-11.126-21.039-23.367-23.927-27.446-9.075-12.239-14.026-15.206-14.026-12.24-16.089-15.948,1.65-8.53,6.188-8.9,23.514,7.789,26.814,12.239,12.789,13.724,12.789,13.724" transform="translate(-578.162 -197.017)" fill="#ffbf9d" stroke="#263238" stroke-linecap="round" stroke-linejoin="round" stroke-width="1"/>
          <path id="Path_507" data-name="Path 507" d="M606.153,215.859s-4.451,4.451-4.821,6.676" transform="translate(-583.328 -202.719)" fill="none" stroke="#263238" stroke-linecap="round" stroke-linejoin="round" stroke-width="1"/>
          <path id="Path_508" data-name="Path 508" d="M610.631,216.392s-3.338,5.193-5.564,7.047" transform="translate(-584.144 -202.882)" fill="none" stroke="#263238" stroke-linecap="round" stroke-linejoin="round" stroke-width="1"/>
          <path id="Path_509" data-name="Path 509" d="M595.546,203.045c-4.822,3.338-8.16,9.643-8.16,9.643s-7.929-2.885-8.53-6.676.6-7.592,5.564-8.9S595.546,203.045,595.546,203.045Z" transform="translate(-578.33 -196.953)" fill="none" stroke="#263238" stroke-linecap="round" stroke-linejoin="round" stroke-width="1"/>
        </g>
      </g>
      <path id="Path_510" data-name="Path 510" d="M723.949,354c-1.575-2.316-36.746-38.689-38.321-43.322s4.724-15.29,14.7-25.022c5.268-5.138,18.391-13.509,25.747-6.683,3.035,2.816,5.6,6.224,8.9,9" transform="translate(-589.784 -213.701)" fill="#fff" stroke="#263238" stroke-linecap="round" stroke-linejoin="round" stroke-width="1"/>
    </g>
    <g id="Group_330" data-name="Group 330" transform="translate(322.233 142.064)">
      <g id="Group_327" data-name="Group 327" transform="translate(13.331 55.208)">
        <path id="Path_511" data-name="Path 511" d="M428.421,326.554l1.266-19.823a34.767,34.767,0,0,0,1.491,4.685c.639,1.278,13.63-4.685,13.63-4.685s-3.408-23-5.537-31.307-2.769-19.168-4.686-19.807-25.983-11.926-26.622-11.926-13.63,1.277-13.63,1.277l-21.085,12.778,3.157,68.808Z" transform="translate(-373.248 -243.691)" fill="#e0e0e0" stroke="#263238" stroke-linecap="round" stroke-linejoin="round" stroke-width="1"/>
        <path id="Path_512" data-name="Path 512" d="M428.541,286.314c-.025.7-.065,1.384-.12,2.045" transform="translate(-390.075 -256.691)" fill="none" stroke="#263238" stroke-linecap="round" stroke-linejoin="round" stroke-width="1"/>
        <path id="Path_513" data-name="Path 513" d="M426.754,259.922a127.369,127.369,0,0,1,1.309,15.318" transform="translate(-389.567 -248.641)" fill="none" stroke="#263238" stroke-linecap="round" stroke-linejoin="round" stroke-width="1"/>
        <line id="Line_20" data-name="Line 20" y1="3.371" x2="0.063" transform="translate(54.036 24.486)" fill="none" stroke="#263238" stroke-linecap="round" stroke-linejoin="round" stroke-width="1"/>
        <line id="Line_21" data-name="Line 21" y1="31.419" x2="0.585" transform="translate(53.404 30.366)" fill="none" stroke="#263238" stroke-linecap="round" stroke-linejoin="round" stroke-width="1"/>
      </g>
      <path id="Path_514" data-name="Path 514" d="M472.888,357.226l-1.539-12.97-14.6,2.78,4.987,10.19Z" transform="translate(-385.386 -219.155)" fill="#ffbf9d" stroke="#263238" stroke-linecap="round" stroke-linejoin="round" stroke-width="1"/>
      <path id="Path_515" data-name="Path 515" d="M453.168,336.814a64.756,64.756,0,0,0,7.414-3.939c4.17-2.548,8.108-3.243,9.266-1.158s3.706,7.876,2.78,8.8-14.6,5.329-15.985,5.329-3.932-4.668-3.932-4.668A8.036,8.036,0,0,1,453.168,336.814Z" transform="translate(-384.117 -214.956)" fill="#d2cfcf" stroke="#263238" stroke-linecap="round" stroke-linejoin="round" stroke-width="1"/>
      <path id="Path_516" data-name="Path 516" d="M405.113,236.379a19.2,19.2,0,0,0-3.2,3.195,18.168,18.168,0,0,0-1.7,4.686l9.158,12.778,5.75-8.945,2.13-1.278,9.157,6.177s-3.194-11.075-6.6-14.483S407.03,235.527,405.113,236.379Z" transform="translate(-368.142 -186.07)" fill="#d2cfcf" stroke="#263238" stroke-linecap="round" stroke-linejoin="round" stroke-width="1"/>
      <g id="Group_328" data-name="Group 328" transform="translate(19.103)">
        <path id="Path_517" data-name="Path 517" d="M422.646,172.859s4.826,3.86,5.308,6.032-.847,6.924-.847,6.924l-6.391-12.473Z" transform="translate(-393.497 -166.879)" fill="#263238" stroke="#263238" stroke-linecap="round" stroke-linejoin="round" stroke-width="1"/>
        <path id="Path_518" data-name="Path 518" d="M411.41,170.146s8.732,18.955,10.009,25.344.639,12.352-1.7,16.825-4.9,3.834-4.9,3.834v14.483s-11.288-8.945-11.927-10.01-1.7-2.982-1.7-2.982-1.278-9.371-5.324-12.14c0,0-5.324.852-6.6-4.046s-.213-6.6,3.195-7.028c0,0-2.769-7.029-3.408-11.714s7.241-6.177,11.926-9.158A25.52,25.52,0,0,1,411.41,170.146Z" transform="translate(-383.744 -166.052)" fill="#ffbf9d" stroke="#263238" stroke-linecap="round" stroke-linejoin="round" stroke-width="1"/>
        <path id="Path_519" data-name="Path 519" d="M424.456,235.635l-4.114-1.6,3.872,7.163Z" transform="translate(-393.383 -185.538)" fill="#263238" stroke="#263238" stroke-linecap="round" stroke-linejoin="round" stroke-width="1"/>
        <path id="Path_520" data-name="Path 520" d="M389.837,194.119s-2.769-1.065-5.75-4.9-3.834-6.815.213-13.205,18.529-12.352,22.575-11.714,6.6,5.75,1.7,8.945a36.83,36.83,0,0,1-10.862,4.472s2.343-1.917-.213-2.343-7.667,2.13-7.241,4.26,3.62,1.491,3.408,4.9-3.195,7.028-2.13,8.306,3.62,2.343,1.491,2.982S389.837,194.119,389.837,194.119Z" transform="translate(-381.552 -164.255)" fill="#263238" stroke="#263238" stroke-linecap="round" stroke-linejoin="round" stroke-width="1"/>
        <line id="Line_22" data-name="Line 22" x1="3.195" y2="2.556" transform="translate(19.999 33.271)" fill="none" stroke="#263238" stroke-linecap="round" stroke-linejoin="round" stroke-width="1"/>
        <path id="Path_521" data-name="Path 521" d="M412.779,214.579s4.046,3.834,11.074.639" transform="translate(-391.076 -179.604)" fill="none" stroke="#263238" stroke-linecap="round" stroke-linejoin="round" stroke-width="1"/>
        <path id="Path_522" data-name="Path 522" d="M414.924,216.418a7.279,7.279,0,0,0,4.685,3.62c3.408.852,1.7-2.982,1.7-2.982S416.627,217.057,414.924,216.418Z" transform="translate(-391.731 -180.165)" fill="#263238" stroke="#263238" stroke-linecap="round" stroke-linejoin="round" stroke-width="1"/>
        <path id="Path_523" data-name="Path 523" d="M408.856,197.264c.332,1.006.238,1.94-.209,2.087s-1.078-.548-1.409-1.553-.238-1.94.209-2.087S408.524,196.259,408.856,197.264Z" transform="translate(-389.326 -173.843)" fill="#263238"/>
        <path id="Path_524" data-name="Path 524" d="M424.79,192.667c.332,1,.238,1.94-.209,2.087s-1.078-.548-1.409-1.554-.238-1.94.209-2.087S424.458,191.662,424.79,192.667Z" transform="translate(-394.186 -172.441)" fill="#263238"/>
        <rect id="Rectangle_99" data-name="Rectangle 99" width="11.995" height="6.851" rx="2.044" transform="matrix(0.949, -0.314, 0.314, 0.949, 12.784, 21.825)" fill="none" stroke="#263238" stroke-linecap="round" stroke-linejoin="round" stroke-width="1"/>
        <line id="Line_23" data-name="Line 23" y1="1.032" x2="3.096" transform="translate(24.425 17.671)" fill="none" stroke="#263238" stroke-linecap="round" stroke-linejoin="round" stroke-width="1"/>
        <line id="Line_24" data-name="Line 24" x1="5.555" y2="5.486" transform="translate(7.675 23.174)" fill="none" stroke="#263238" stroke-linecap="round" stroke-linejoin="round" stroke-width="1"/>
        <line id="Line_25" data-name="Line 25" x1="4.128" y2="3.483" transform="translate(33.97 14.446)" fill="none" stroke="#263238" stroke-linecap="round" stroke-linejoin="round" stroke-width="1"/>
        <rect id="Rectangle_100" data-name="Rectangle 100" width="11.995" height="6.851" rx="2.044" transform="translate(26.84 17.566) rotate(-18.298)" fill="none" stroke="#263238" stroke-linecap="round" stroke-linejoin="round" stroke-width="1"/>
        <path id="Path_525" data-name="Path 525" d="M402.973,191.59s2.556-3.194,6.389-2.769" transform="translate(-388.086 -171.736)" fill="none" stroke="#263238" stroke-linecap="round" stroke-linejoin="round" stroke-width="2"/>
        <path id="Path_526" data-name="Path 526" d="M419.827,185.908a5.109,5.109,0,0,1,4.9-.852" transform="translate(-393.226 -170.527)" fill="none" stroke="#263238" stroke-linecap="round" stroke-linejoin="round" stroke-width="2"/>
        <path id="Path_527" data-name="Path 527" d="M420.746,192.209s6.389,12.353,5.75,13.2-4.9,0-4.9,0" transform="translate(-393.506 -172.781)" fill="#ffbf9d" stroke="#263238" stroke-linecap="round" stroke-linejoin="round" stroke-width="1"/>
      </g>
      <path id="Path_528" data-name="Path 528" d="M370.442,262.077s-3.621,0-4.686,3.194-11.075,39.614-10.01,40.679,14.483,1.917,15.973,1.491,7.88-24.918,7.88-24.918" transform="translate(-354.555 -194.09)" fill="#e0e0e0" stroke="#263238" stroke-linecap="round" stroke-linejoin="round" stroke-width="1"/>
      <path id="Path_529" data-name="Path 529" d="M375.278,323.029s.852-4.26-2.768-5.963-9.584-1.491-13.2,1.277-4.26,2.13-5.112,7.455a8.024,8.024,0,0,0,5.75,9.371c2.982.639,5.537,1.277,9.158-2.343S375.278,323.029,375.278,323.029Z" transform="translate(-354.067 -210.531)" fill="#d2cfcf" stroke="#263238" stroke-linecap="round" stroke-linejoin="round" stroke-width="1"/>
      <path id="Path_530" data-name="Path 530" d="M413.783,293.761s-1.491,32.585-7.029,44.725c0,0,5.324,1.7,14.056.852s16.825-5.537,16.825-5.537,2.982-17.89,4.473-26.622,2.342-13.63,2.342-13.63-1.917,1.491-12.778,2.129S413.783,293.761,413.783,293.761Z" transform="translate(-370.136 -203.689)" fill="#f4f2f2" stroke="#263238" stroke-linecap="round" stroke-linejoin="round" stroke-width="1"/>
      <g id="Group_329" data-name="Group 329" transform="translate(5.296 109.091)">
        <path id="Path_531" data-name="Path 531" d="M386.121,328.886s-12.352-7.667-14.056-7.667a11.391,11.391,0,0,0-8.945,6.6c-2.13,4.9-1.917,7.454.851,8.306s20.659,2.556,22.789,2.556,7.241,1.065,10.223,1.065,10.862-.852,11.927-2.556-7.667-1.065-8.306-1.278,7.981-1.873,9.157-2.129c1.2-.262,2.769-1.917.426-2.556,0,0,4.047-1.917,1.491-3.621l-11.894-2.093,3.678-.774s8.325,2.226,8.216-.327c-.045-1.064-6.815-3.195-8.945-3.195s-13.418,7.667-13.418,7.667Z" transform="translate(-361.687 -321.219)" fill="#ffbf9d" stroke="#263238" stroke-linecap="round" stroke-linejoin="round" stroke-width="1"/>
        <line id="Line_26" data-name="Line 26" x1="10.862" y1="0.852" transform="translate(37.639 9.158)" fill="none" stroke="#263238" stroke-linecap="round" stroke-linejoin="round" stroke-width="1"/>
      </g>
    </g>
    <g id="Group_331" data-name="Group 331" transform="translate(385.382 116.563)">
      <path id="Path_532" data-name="Path 532" d="M450.655,170.5a21.54,21.54,0,0,0,10.393,7l-8.38,14.765,15.546-13.6c.154,0,.305.01.459.01,7.516,0,14.138-3.242,18.034-8.167Z" transform="translate(-446.675 -140.658)" fill="#263238" stroke="#263238" stroke-linecap="round" stroke-linejoin="round" stroke-width="1"/>
      <path id="Path_533" data-name="Path 533" d="M466.633,127.563c-11.987,0-21.705,8.246-21.705,18.416,0,7.894,5.855,14.626,14.08,17.245l-8.38,14.765,15.546-13.6c.153,0,.305.01.459.01,11.987,0,21.705-8.246,21.705-18.417S478.62,127.563,466.633,127.563Z" transform="translate(-444.928 -127.563)" fill="#f0ae00"/>
      <path id="Path_534" data-name="Path 534" d="M463,153.581a2.412,2.412,0,1,0-2.412,2.412A2.412,2.412,0,0,0,463,153.581Z" transform="translate(-448.969 -134.763)" fill="#263238"/>
      <path id="Path_535" data-name="Path 535" d="M478.457,153.581a2.412,2.412,0,1,0-2.412,2.412A2.411,2.411,0,0,0,478.457,153.581Z" transform="translate(-453.683 -134.763)" fill="#263238"/>
      <circle id="Ellipse_76" data-name="Ellipse 76" cx="2.412" cy="2.412" r="2.412" transform="translate(30.694 16.406)" fill="#263238"/>
    </g>
    <g id="Group_334" data-name="Group 334" transform="translate(354.769 304.88)">
      <g id="Group_332" data-name="Group 332" transform="translate(10.048 12.318)">
        <circle id="Ellipse_77" data-name="Ellipse 77" cx="4.185" cy="4.185" r="4.185" fill="#ff725e"/>
      </g>
      <g id="Group_333" data-name="Group 333">
        <path id="Path_536" data-name="Path 536" d="M417.117,407.055a10.583,10.583,0,0,0-9.667,6.311l2.8,2.5a7.087,7.087,0,0,1,13.872.681l2.842-2.737A10.58,10.58,0,0,0,417.117,407.055Z" transform="translate(-402.885 -401.124)" fill="#ff725e"/>
        <path id="Path_537" data-name="Path 537" d="M403.544,409.064a13,13,0,0,1,23.3.332l2.613-2.516a16.487,16.487,0,0,0-28.577-.193Z" transform="translate(-400.881 -398.521)" fill="#ff725e"/>
      </g>
    </g>
    <g id="Group_337" data-name="Group 337" transform="translate(453.753 106.941)">
      <g id="Group_336" data-name="Group 336" transform="translate(0 2.45)">
        <g id="Group_335" data-name="Group 335">
          <path id="Path_538" data-name="Path 538" d="M570.9,124.264v17.283a3.294,3.294,0,0,1-3.294,3.294H546.6a3.294,3.294,0,0,1-3.294-3.294V120.538a3.294,3.294,0,0,1,3.294-3.294h18.785" transform="translate(-543.302 -117.244)" fill="#0169ee" fill-rule="evenodd"/>
        </g>
        <path id="Path_539" data-name="Path 539" d="M568.271,128.295H549.513a.771.771,0,0,0-.771.771v10.793a.771.771,0,0,0,.771.771h18.758a.771.771,0,0,0,.771-.771V129.066A.771.771,0,0,0,568.271,128.295Zm.252,2.337-5.987,3.7,5.334,3.942a.7.7,0,0,1-.414,1.254.687.687,0,0,1-.412-.137l-5.781-4.272-2.143,1.323-2.515-1.4-5.88,4.346a.695.695,0,1,1-.826-1.117l5.372-3.971-6.1-3.387a.695.695,0,1,1,.675-1.215l9.233,5.129,8.71-5.379a.7.7,0,0,1,.73,1.183Z" transform="translate(-544.961 -120.615)" fill="#fff" fill-rule="evenodd"/>
      </g>
      <path id="Path_540" data-name="Path 540" d="M583.566,118.592a4.873,4.873,0,1,0-4.873,4.874A4.873,4.873,0,0,0,583.566,118.592Z" transform="translate(-552.61 -113.719)" fill="#f0ae00" fill-rule="evenodd"/>
    </g>
    <g id="Group_341" data-name="Group 341" transform="translate(522.514 289.22)">
      <g id="Group_340" data-name="Group 340">
        <g id="Group_339" data-name="Group 339" transform="translate(0 2.45)">
          <g id="Group_338" data-name="Group 338">
            <path id="Path_541" data-name="Path 541" d="M669.835,386.534v17.283a3.294,3.294,0,0,1-3.294,3.294H645.533a3.294,3.294,0,0,1-3.294-3.294V382.808a3.294,3.294,0,0,1,3.294-3.294h18.785" transform="translate(-642.239 -379.514)" fill="#0169ee" fill-rule="evenodd"/>
          </g>
        </g>
        <path id="Path_542" data-name="Path 542" d="M682.5,380.862a4.873,4.873,0,1,0-4.873,4.873A4.874,4.874,0,0,0,682.5,380.862Z" transform="translate(-651.547 -375.989)" fill="#f0ae00" fill-rule="evenodd"/>
      </g>
      <path id="Path_543" data-name="Path 543" d="M658.389,386.428c-4.927,0-8.921,3.412-8.921,7.62a7.316,7.316,0,0,0,3.633,6.127l-.4,3.54,3.645-2.257a10.379,10.379,0,0,0,2.046.209c4.927,0,8.921-3.411,8.921-7.62S663.316,386.428,658.389,386.428Z" transform="translate(-644.444 -379.173)" fill="#fff" fill-rule="evenodd"/>
    </g>
  </g>
</svg>
